<?xml version="1.0" encoding="UTF-8" standalone="no"?><svg xmlns="http://www.w3.org/2000/svg" xmlns:xlink="http://www.w3.org/1999/xlink" contentScriptType="application/ecmascript" contentStyleType="text/css" height="674px" preserveAspectRatio="none" style="width:700px;height:674px;" version="1.1" viewBox="0 0 700 674" width="700px" zoomAndPan="magnify"><defs><filter height="300%" id="fpkx2d56gp90y" width="300%" x="-1" y="-1"><feGaussianBlur result="blurOut" stdDeviation="2.0"/><feColorMatrix in="blurOut" result="blurOut2" type="matrix" values="0 0 0 0 0 0 0 0 0 0 0 0 0 0 0 0 0 0 .4 0"/><feOffset dx="4.0" dy="4.0" in="blurOut2" result="blurOut3"/><feBlend in="SourceGraphic" in2="blurOut3" mode="normal"/></filter></defs><g><!--MD5=[119d784824a8874597ed601abc7cdb0a]
cluster to_relative_date--><polygon fill="#FFFFFF" filter="url(#fpkx2d56gp90y)" points="22,24,152,24,159,46.2969,678,46.2969,678,534,22,534,22,24" style="stroke: #000000; stroke-width: 1.5;"/><line style="stroke: #000000; stroke-width: 1.5;" x1="22" x2="159" y1="46.2969" y2="46.2969"/><text fill="#000000" font-family="sans-serif" font-size="14" font-weight="bold" lengthAdjust="spacingAndGlyphs" textLength="124" x="26" y="38.9951">to_relative_date</text><!--MD5=[244a889250d34b45d59169c1aefe12aa]
class to_relative_date.Program--><rect fill="#FEFECE" filter="url(#fpkx2d56gp90y)" height="48" id="to_relative_date.Program" style="stroke: #A80036; stroke-width: 1.5;" width="85" x="218.5" y="59"/><ellipse cx="233.5" cy="75" fill="#ADD1B2" rx="11" ry="11" style="stroke: #A80036; stroke-width: 1.0;"/><path d="M236.4688,80.6406 Q235.8906,80.9375 235.25,81.0781 Q234.6094,81.2344 233.9063,81.2344 Q231.4063,81.2344 230.0781,79.5938 Q228.7656,77.9375 228.7656,74.8125 Q228.7656,71.6875 230.0781,70.0313 Q231.4063,68.375 233.9063,68.375 Q234.6094,68.375 235.25,68.5313 Q235.9063,68.6875 236.4688,68.9844 L236.4688,71.7031 Q235.8438,71.125 235.25,70.8594 Q234.6563,70.5781 234.0313,70.5781 Q232.6875,70.5781 232,71.6563 Q231.3125,72.7188 231.3125,74.8125 Q231.3125,76.9063 232,77.9844 Q232.6875,79.0469 234.0313,79.0469 Q234.6563,79.0469 235.25,78.7813 Q235.8438,78.5 236.4688,77.9219 L236.4688,80.6406 Z "/><text fill="#000000" font-family="sans-serif" font-size="12" lengthAdjust="spacingAndGlyphs" textLength="53" x="247.5" y="79.1543">Program</text><line style="stroke: #A80036; stroke-width: 1.5;" x1="219.5" x2="302.5" y1="91" y2="91"/><line style="stroke: #A80036; stroke-width: 1.5;" x1="219.5" x2="302.5" y1="99" y2="99"/><!--MD5=[7e240659f8833988ee19918e5bd1d485]
class to_relative_date.Now--><rect fill="#FEFECE" filter="url(#fpkx2d56gp90y)" height="60.8047" id="to_relative_date.Now" style="stroke: #A80036; stroke-width: 1.5;" width="117" x="150.5" y="184"/><ellipse cx="192.05" cy="200" fill="#ADD1B2" rx="11" ry="11" style="stroke: #A80036; stroke-width: 1.0;"/><path d="M195.0188,205.6406 Q194.4406,205.9375 193.8,206.0781 Q193.1594,206.2344 192.4563,206.2344 Q189.9563,206.2344 188.6281,204.5938 Q187.3156,202.9375 187.3156,199.8125 Q187.3156,196.6875 188.6281,195.0313 Q189.9563,193.375 192.4563,193.375 Q193.1594,193.375 193.8,193.5313 Q194.4563,193.6875 195.0188,193.9844 L195.0188,196.7031 Q194.3938,196.125 193.8,195.8594 Q193.2063,195.5781 192.5813,195.5781 Q191.2375,195.5781 190.55,196.6563 Q189.8625,197.7188 189.8625,199.8125 Q189.8625,201.9063 190.55,202.9844 Q191.2375,204.0469 192.5813,204.0469 Q193.2063,204.0469 193.8,203.7813 Q194.3938,203.5 195.0188,202.9219 L195.0188,205.6406 Z "/><text fill="#000000" font-family="sans-serif" font-size="12" lengthAdjust="spacingAndGlyphs" textLength="26" x="211.95" y="204.1543">Now</text><line style="stroke: #A80036; stroke-width: 1.5;" x1="151.5" x2="266.5" y1="216" y2="216"/><text fill="#000000" font-family="sans-serif" font-size="11" lengthAdjust="spacingAndGlyphs" textLength="105" x="156.5" y="230.2104">timezone : STRING</text><line style="stroke: #A80036; stroke-width: 1.5;" x1="151.5" x2="266.5" y1="236.8047" y2="236.8047"/><!--MD5=[354bcac279b40abf7be5d6ebe2c54ad9]
class to_relative_date.Statement--><rect fill="#FEFECE" filter="url(#fpkx2d56gp90y)" height="53.9375" id="to_relative_date.Statement" style="stroke: #A80036; stroke-width: 1.5;" width="98" x="303" y="187.5"/><ellipse cx="318" cy="206.4688" fill="#ADD1B2" rx="11" ry="11" style="stroke: #A80036; stroke-width: 1.0;"/><path d="M320.9688,212.1094 Q320.3906,212.4063 319.75,212.5469 Q319.1094,212.7031 318.4063,212.7031 Q315.9063,212.7031 314.5781,211.0625 Q313.2656,209.4063 313.2656,206.2813 Q313.2656,203.1563 314.5781,201.5 Q315.9063,199.8438 318.4063,199.8438 Q319.1094,199.8438 319.75,200 Q320.4063,200.1563 320.9688,200.4531 L320.9688,203.1719 Q320.3438,202.5938 319.75,202.3281 Q319.1563,202.0469 318.5313,202.0469 Q317.1875,202.0469 316.5,203.125 Q315.8125,204.1875 315.8125,206.2813 Q315.8125,208.375 316.5,209.4531 Q317.1875,210.5156 318.5313,210.5156 Q319.1563,210.5156 319.75,210.25 Q320.3438,209.9688 320.9688,209.3906 L320.9688,212.1094 Z "/><text fill="#000000" font-family="sans-serif" font-size="12" font-style="italic" lengthAdjust="spacingAndGlyphs" textLength="66" x="332" y="203.6387">«abstract»</text><text fill="#000000" font-family="sans-serif" font-size="12" lengthAdjust="spacingAndGlyphs" textLength="66" x="332" y="217.6074">Statement</text><line style="stroke: #A80036; stroke-width: 1.5;" x1="304" x2="400" y1="225.4375" y2="225.4375"/><line style="stroke: #A80036; stroke-width: 1.5;" x1="304" x2="400" y1="233.4375" y2="233.4375"/><!--MD5=[4a03daa0e2fb79b6c6b98523ab2d3052]
class to_relative_date.FixedDelta--><rect fill="#FEFECE" filter="url(#fpkx2d56gp90y)" height="73.6094" id="to_relative_date.FixedDelta" style="stroke: #A80036; stroke-width: 1.5;" width="97" x="37.5" y="306"/><ellipse cx="52.5" cy="322" fill="#ADD1B2" rx="11" ry="11" style="stroke: #A80036; stroke-width: 1.0;"/><path d="M55.4688,327.6406 Q54.8906,327.9375 54.25,328.0781 Q53.6094,328.2344 52.9063,328.2344 Q50.4063,328.2344 49.0781,326.5938 Q47.7656,324.9375 47.7656,321.8125 Q47.7656,318.6875 49.0781,317.0313 Q50.4063,315.375 52.9063,315.375 Q53.6094,315.375 54.25,315.5313 Q54.9063,315.6875 55.4688,315.9844 L55.4688,318.7031 Q54.8438,318.125 54.25,317.8594 Q53.6563,317.5781 53.0313,317.5781 Q51.6875,317.5781 51,318.6563 Q50.3125,319.7188 50.3125,321.8125 Q50.3125,323.9063 51,324.9844 Q51.6875,326.0469 53.0313,326.0469 Q53.6563,326.0469 54.25,325.7813 Q54.8438,325.5 55.4688,324.9219 L55.4688,327.6406 Z "/><text fill="#000000" font-family="sans-serif" font-size="12" lengthAdjust="spacingAndGlyphs" textLength="65" x="66.5" y="326.1543">FixedDelta</text><line style="stroke: #A80036; stroke-width: 1.5;" x1="38.5" x2="133.5" y1="338" y2="338"/><text fill="#000000" font-family="sans-serif" font-size="11" lengthAdjust="spacingAndGlyphs" textLength="60" x="43.5" y="352.2104">value : INT</text><text fill="#000000" font-family="sans-serif" font-size="11" lengthAdjust="spacingAndGlyphs" textLength="84" x="43.5" y="365.0151">unit : FixedUnit</text><line style="stroke: #A80036; stroke-width: 1.5;" x1="38.5" x2="133.5" y1="371.6094" y2="371.6094"/><!--MD5=[12cb7661cde736244273450f6cab8731]
class to_relative_date.Floor--><rect fill="#FEFECE" filter="url(#fpkx2d56gp90y)" height="60.8047" id="to_relative_date.Floor" style="stroke: #A80036; stroke-width: 1.5;" width="96" x="170" y="312.5"/><ellipse cx="199.85" cy="328.5" fill="#ADD1B2" rx="11" ry="11" style="stroke: #A80036; stroke-width: 1.0;"/><path d="M202.8188,334.1406 Q202.2406,334.4375 201.6,334.5781 Q200.9594,334.7344 200.2563,334.7344 Q197.7563,334.7344 196.4281,333.0938 Q195.1156,331.4375 195.1156,328.3125 Q195.1156,325.1875 196.4281,323.5313 Q197.7563,321.875 200.2563,321.875 Q200.9594,321.875 201.6,322.0313 Q202.2563,322.1875 202.8188,322.4844 L202.8188,325.2031 Q202.1938,324.625 201.6,324.3594 Q201.0063,324.0781 200.3813,324.0781 Q199.0375,324.0781 198.35,325.1563 Q197.6625,326.2188 197.6625,328.3125 Q197.6625,330.4063 198.35,331.4844 Q199.0375,332.5469 200.3813,332.5469 Q201.0063,332.5469 201.6,332.2813 Q202.1938,332 202.8188,331.4219 L202.8188,334.1406 Z "/><text fill="#000000" font-family="sans-serif" font-size="12" lengthAdjust="spacingAndGlyphs" textLength="31" x="217.15" y="332.6543">Floor</text><line style="stroke: #A80036; stroke-width: 1.5;" x1="171" x2="265" y1="344.5" y2="344.5"/><text fill="#000000" font-family="sans-serif" font-size="11" lengthAdjust="spacingAndGlyphs" textLength="84" x="176" y="358.7104">unit : FixedUnit</text><line style="stroke: #A80036; stroke-width: 1.5;" x1="171" x2="265" y1="365.3047" y2="365.3047"/><!--MD5=[f28de5268660de998254790599db36aa]
class to_relative_date.WeekdayOfMonthFloor--><rect fill="#FEFECE" filter="url(#fpkx2d56gp90y)" height="60.8047" id="to_relative_date.WeekdayOfMonthFloor" style="stroke: #A80036; stroke-width: 1.5;" width="171" x="89.5" y="457"/><ellipse cx="104.5" cy="473" fill="#ADD1B2" rx="11" ry="11" style="stroke: #A80036; stroke-width: 1.0;"/><path d="M107.4688,478.6406 Q106.8906,478.9375 106.25,479.0781 Q105.6094,479.2344 104.9063,479.2344 Q102.4063,479.2344 101.0781,477.5938 Q99.7656,475.9375 99.7656,472.8125 Q99.7656,469.6875 101.0781,468.0313 Q102.4063,466.375 104.9063,466.375 Q105.6094,466.375 106.25,466.5313 Q106.9063,466.6875 107.4688,466.9844 L107.4688,469.7031 Q106.8438,469.125 106.25,468.8594 Q105.6563,468.5781 105.0313,468.5781 Q103.6875,468.5781 103,469.6563 Q102.3125,470.7188 102.3125,472.8125 Q102.3125,474.9063 103,475.9844 Q103.6875,477.0469 105.0313,477.0469 Q105.6563,477.0469 106.25,476.7813 Q106.8438,476.5 107.4688,475.9219 L107.4688,478.6406 Z "/><text fill="#000000" font-family="sans-serif" font-size="12" lengthAdjust="spacingAndGlyphs" textLength="139" x="118.5" y="477.1543">WeekdayOfMonthFloor</text><line style="stroke: #A80036; stroke-width: 1.5;" x1="90.5" x2="259.5" y1="489" y2="489"/><text fill="#000000" font-family="sans-serif" font-size="11" lengthAdjust="spacingAndGlyphs" textLength="103" x="95.5" y="503.2104">value : WeekDayID</text><line style="stroke: #A80036; stroke-width: 1.5;" x1="90.5" x2="259.5" y1="509.8047" y2="509.8047"/><!--MD5=[2dcca7e332a44c3a14478e9e9df601f0]
class to_relative_date.MonthDelta--><rect fill="#FEFECE" filter="url(#fpkx2d56gp90y)" height="60.8047" id="to_relative_date.MonthDelta" style="stroke: #A80036; stroke-width: 1.5;" width="104" x="296" y="457"/><ellipse cx="311" cy="473" fill="#ADD1B2" rx="11" ry="11" style="stroke: #A80036; stroke-width: 1.0;"/><path d="M313.9688,478.6406 Q313.3906,478.9375 312.75,479.0781 Q312.1094,479.2344 311.4063,479.2344 Q308.9063,479.2344 307.5781,477.5938 Q306.2656,475.9375 306.2656,472.8125 Q306.2656,469.6875 307.5781,468.0313 Q308.9063,466.375 311.4063,466.375 Q312.1094,466.375 312.75,466.5313 Q313.4063,466.6875 313.9688,466.9844 L313.9688,469.7031 Q313.3438,469.125 312.75,468.8594 Q312.1563,468.5781 311.5313,468.5781 Q310.1875,468.5781 309.5,469.6563 Q308.8125,470.7188 308.8125,472.8125 Q308.8125,474.9063 309.5,475.9844 Q310.1875,477.0469 311.5313,477.0469 Q312.1563,477.0469 312.75,476.7813 Q313.3438,476.5 313.9688,475.9219 L313.9688,478.6406 Z "/><text fill="#000000" font-family="sans-serif" font-size="12" lengthAdjust="spacingAndGlyphs" textLength="72" x="325" y="477.1543">MonthDelta</text><line style="stroke: #A80036; stroke-width: 1.5;" x1="297" x2="399" y1="489" y2="489"/><text fill="#000000" font-family="sans-serif" font-size="11" lengthAdjust="spacingAndGlyphs" textLength="60" x="302" y="503.2104">value : INT</text><line style="stroke: #A80036; stroke-width: 1.5;" x1="297" x2="399" y1="509.8047" y2="509.8047"/><!--MD5=[151cff3fcb11278b84fa48ed43a833da]
class to_relative_date.MonthFloor--><rect fill="#FEFECE" filter="url(#fpkx2d56gp90y)" height="60.8047" id="to_relative_date.MonthFloor" style="stroke: #A80036; stroke-width: 1.5;" width="102" x="301" y="312.5"/><ellipse cx="316" cy="328.5" fill="#ADD1B2" rx="11" ry="11" style="stroke: #A80036; stroke-width: 1.0;"/><path d="M318.9688,334.1406 Q318.3906,334.4375 317.75,334.5781 Q317.1094,334.7344 316.4063,334.7344 Q313.9063,334.7344 312.5781,333.0938 Q311.2656,331.4375 311.2656,328.3125 Q311.2656,325.1875 312.5781,323.5313 Q313.9063,321.875 316.4063,321.875 Q317.1094,321.875 317.75,322.0313 Q318.4063,322.1875 318.9688,322.4844 L318.9688,325.2031 Q318.3438,324.625 317.75,324.3594 Q317.1563,324.0781 316.5313,324.0781 Q315.1875,324.0781 314.5,325.1563 Q313.8125,326.2188 313.8125,328.3125 Q313.8125,330.4063 314.5,331.4844 Q315.1875,332.5469 316.5313,332.5469 Q317.1563,332.5469 317.75,332.2813 Q318.3438,332 318.9688,331.4219 L318.9688,334.1406 Z "/><text fill="#000000" font-family="sans-serif" font-size="12" lengthAdjust="spacingAndGlyphs" textLength="70" x="330" y="332.6543">MonthFloor</text><line style="stroke: #A80036; stroke-width: 1.5;" x1="302" x2="402" y1="344.5" y2="344.5"/><text fill="#000000" font-family="sans-serif" font-size="11" lengthAdjust="spacingAndGlyphs" textLength="75" x="307" y="358.7104">unit : STRING</text><line style="stroke: #A80036; stroke-width: 1.5;" x1="302" x2="402" y1="365.3047" y2="365.3047"/><!--MD5=[01e12ef1d4c6eef173315a3592662198]
class to_relative_date.WeekDelta--><rect fill="#FEFECE" filter="url(#fpkx2d56gp90y)" height="60.8047" id="to_relative_date.WeekDelta" style="stroke: #A80036; stroke-width: 1.5;" width="99" x="435.5" y="457"/><ellipse cx="450.5" cy="473" fill="#ADD1B2" rx="11" ry="11" style="stroke: #A80036; stroke-width: 1.0;"/><path d="M453.4688,478.6406 Q452.8906,478.9375 452.25,479.0781 Q451.6094,479.2344 450.9063,479.2344 Q448.4063,479.2344 447.0781,477.5938 Q445.7656,475.9375 445.7656,472.8125 Q445.7656,469.6875 447.0781,468.0313 Q448.4063,466.375 450.9063,466.375 Q451.6094,466.375 452.25,466.5313 Q452.9063,466.6875 453.4688,466.9844 L453.4688,469.7031 Q452.8438,469.125 452.25,468.8594 Q451.6563,468.5781 451.0313,468.5781 Q449.6875,468.5781 449,469.6563 Q448.3125,470.7188 448.3125,472.8125 Q448.3125,474.9063 449,475.9844 Q449.6875,477.0469 451.0313,477.0469 Q451.6563,477.0469 452.25,476.7813 Q452.8438,476.5 453.4688,475.9219 L453.4688,478.6406 Z "/><text fill="#000000" font-family="sans-serif" font-size="12" lengthAdjust="spacingAndGlyphs" textLength="67" x="464.5" y="477.1543">WeekDelta</text><line style="stroke: #A80036; stroke-width: 1.5;" x1="436.5" x2="533.5" y1="489" y2="489"/><text fill="#000000" font-family="sans-serif" font-size="11" lengthAdjust="spacingAndGlyphs" textLength="60" x="441.5" y="503.2104">value : INT</text><line style="stroke: #A80036; stroke-width: 1.5;" x1="436.5" x2="533.5" y1="509.8047" y2="509.8047"/><!--MD5=[f8920dcd2a973096a6ddf16ad4a7808e]
class to_relative_date.WeekFloor--><rect fill="#FEFECE" filter="url(#fpkx2d56gp90y)" height="60.8047" id="to_relative_date.WeekFloor" style="stroke: #A80036; stroke-width: 1.5;" width="97" x="438.5" y="312.5"/><ellipse cx="453.5" cy="328.5" fill="#ADD1B2" rx="11" ry="11" style="stroke: #A80036; stroke-width: 1.0;"/><path d="M456.4688,334.1406 Q455.8906,334.4375 455.25,334.5781 Q454.6094,334.7344 453.9063,334.7344 Q451.4063,334.7344 450.0781,333.0938 Q448.7656,331.4375 448.7656,328.3125 Q448.7656,325.1875 450.0781,323.5313 Q451.4063,321.875 453.9063,321.875 Q454.6094,321.875 455.25,322.0313 Q455.9063,322.1875 456.4688,322.4844 L456.4688,325.2031 Q455.8438,324.625 455.25,324.3594 Q454.6563,324.0781 454.0313,324.0781 Q452.6875,324.0781 452,325.1563 Q451.3125,326.2188 451.3125,328.3125 Q451.3125,330.4063 452,331.4844 Q452.6875,332.5469 454.0313,332.5469 Q454.6563,332.5469 455.25,332.2813 Q455.8438,332 456.4688,331.4219 L456.4688,334.1406 Z "/><text fill="#000000" font-family="sans-serif" font-size="12" lengthAdjust="spacingAndGlyphs" textLength="65" x="467.5" y="332.6543">WeekFloor</text><line style="stroke: #A80036; stroke-width: 1.5;" x1="439.5" x2="534.5" y1="344.5" y2="344.5"/><text fill="#000000" font-family="sans-serif" font-size="11" lengthAdjust="spacingAndGlyphs" textLength="75" x="444.5" y="358.7104">unit : STRING</text><line style="stroke: #A80036; stroke-width: 1.5;" x1="439.5" x2="534.5" y1="365.3047" y2="365.3047"/><!--MD5=[b688f1d41994f78cf649e0bf99cc494a]
class to_relative_date.YearDelta--><rect fill="#FEFECE" filter="url(#fpkx2d56gp90y)" height="60.8047" id="to_relative_date.YearDelta" style="stroke: #A80036; stroke-width: 1.5;" width="93" x="569.5" y="457"/><ellipse cx="584.5" cy="473" fill="#ADD1B2" rx="11" ry="11" style="stroke: #A80036; stroke-width: 1.0;"/><path d="M587.4688,478.6406 Q586.8906,478.9375 586.25,479.0781 Q585.6094,479.2344 584.9063,479.2344 Q582.4063,479.2344 581.0781,477.5938 Q579.7656,475.9375 579.7656,472.8125 Q579.7656,469.6875 581.0781,468.0313 Q582.4063,466.375 584.9063,466.375 Q585.6094,466.375 586.25,466.5313 Q586.9063,466.6875 587.4688,466.9844 L587.4688,469.7031 Q586.8438,469.125 586.25,468.8594 Q585.6563,468.5781 585.0313,468.5781 Q583.6875,468.5781 583,469.6563 Q582.3125,470.7188 582.3125,472.8125 Q582.3125,474.9063 583,475.9844 Q583.6875,477.0469 585.0313,477.0469 Q585.6563,477.0469 586.25,476.7813 Q586.8438,476.5 587.4688,475.9219 L587.4688,478.6406 Z "/><text fill="#000000" font-family="sans-serif" font-size="12" lengthAdjust="spacingAndGlyphs" textLength="61" x="598.5" y="477.1543">YearDelta</text><line style="stroke: #A80036; stroke-width: 1.5;" x1="570.5" x2="661.5" y1="489" y2="489"/><text fill="#000000" font-family="sans-serif" font-size="11" lengthAdjust="spacingAndGlyphs" textLength="60" x="575.5" y="503.2104">value : INT</text><line style="stroke: #A80036; stroke-width: 1.5;" x1="570.5" x2="661.5" y1="509.8047" y2="509.8047"/><!--MD5=[fc4afacc56381c234131ca4e70f94b73]
class to_relative_date.YearFloor--><rect fill="#FEFECE" filter="url(#fpkx2d56gp90y)" height="60.8047" id="to_relative_date.YearFloor" style="stroke: #A80036; stroke-width: 1.5;" width="91" x="570.5" y="312.5"/><ellipse cx="585.5" cy="328.5" fill="#ADD1B2" rx="11" ry="11" style="stroke: #A80036; stroke-width: 1.0;"/><path d="M588.4688,334.1406 Q587.8906,334.4375 587.25,334.5781 Q586.6094,334.7344 585.9063,334.7344 Q583.4063,334.7344 582.0781,333.0938 Q580.7656,331.4375 580.7656,328.3125 Q580.7656,325.1875 582.0781,323.5313 Q583.4063,321.875 585.9063,321.875 Q586.6094,321.875 587.25,322.0313 Q587.9063,322.1875 588.4688,322.4844 L588.4688,325.2031 Q587.8438,324.625 587.25,324.3594 Q586.6563,324.0781 586.0313,324.0781 Q584.6875,324.0781 584,325.1563 Q583.3125,326.2188 583.3125,328.3125 Q583.3125,330.4063 584,331.4844 Q584.6875,332.5469 586.0313,332.5469 Q586.6563,332.5469 587.25,332.2813 Q587.8438,332 588.4688,331.4219 L588.4688,334.1406 Z "/><text fill="#000000" font-family="sans-serif" font-size="12" lengthAdjust="spacingAndGlyphs" textLength="59" x="599.5" y="332.6543">YearFloor</text><line style="stroke: #A80036; stroke-width: 1.5;" x1="571.5" x2="660.5" y1="344.5" y2="344.5"/><text fill="#000000" font-family="sans-serif" font-size="11" lengthAdjust="spacingAndGlyphs" textLength="75" x="576.5" y="358.7104">unit : STRING</text><line style="stroke: #A80036; stroke-width: 1.5;" x1="571.5" x2="660.5" y1="365.3047" y2="365.3047"/><!--MD5=[5d8eac060e709ee33cce04845c61618d]
link to_relative_date.Program to to_relative_date.Now--><path d="M247.2274,118.2853 C247.2274,118.2853 232.67,154.55 225.91,171.38 " fill="none" id="to_relative_date.Program-to_relative_date.Now" style="stroke: #A80036; stroke-width: 1.0;"/><polygon fill="#A80036" points="220.96,183.71,228.0234,176.8465,222.8217,179.0695,220.5986,173.8678,220.96,183.71" style="stroke: #A80036; stroke-width: 1.0;"/><line style="stroke: #A80036; stroke-width: 1.0;" x1="222.8217" x2="225.805" y1="179.0695" y2="171.645"/><polygon fill="#A80036" points="251.7,107.15,245.7519,111.2268,247.2274,118.2853,253.1755,114.2085,251.7,107.15" style="stroke: #A80036; stroke-width: 1.0;"/><text fill="#000000" font-family="sans-serif" font-size="13" lengthAdjust="spacingAndGlyphs" textLength="25" x="240" y="150.0669">now</text><!--MD5=[73e680a246ed687db54b16889dffced9]
link to_relative_date.Program to to_relative_date.Statement--><path d="M284.1648,116.9715 C284.1648,116.9715 313.18,158.26 326.18,176.76 " fill="none" id="to_relative_date.Program-to_relative_date.Statement" style="stroke: #A80036; stroke-width: 1.0;"/><polygon fill="#A80036" points="333.68,187.43,331.7766,177.7668,330.8046,183.3395,325.2319,182.3675,333.68,187.43" style="stroke: #A80036; stroke-width: 1.0;"/><line style="stroke: #A80036; stroke-width: 1.0;" x1="330.8046" x2="326.21" y1="183.3395" y2="176.795"/><polygon fill="#A80036" points="277.27,107.15,277.4436,114.359,284.1648,116.9715,283.9912,109.7625,277.27,107.15" style="stroke: #A80036; stroke-width: 1.0;"/><text fill="#000000" font-family="sans-serif" font-size="13" lengthAdjust="spacingAndGlyphs" textLength="101" x="310" y="150.0669">statements 0..*</text><!--MD5=[5c3cbad81d938e8be5906cc53095ba33]
reverse link to_relative_date.Statement to to_relative_date.MonthFloor--><path d="M352,261.75 C352,278.62 352,297.23 352,312.28 " fill="none" id="to_relative_date.Statement&lt;-to_relative_date.MonthFloor" style="stroke: #A80036; stroke-width: 1.0;"/><polygon fill="none" points="345,261.71,352,241.71,359,261.71,345,261.71" style="stroke: #A80036; stroke-width: 1.0;"/><!--MD5=[ffbc41d8e5b3179dfbd65cdd752f3c38]
reverse link to_relative_date.Statement to to_relative_date.WeekFloor--><path d="M394.85,255.65 C414.44,274.01 437.26,295.39 455.28,312.28 " fill="none" id="to_relative_date.Statement&lt;-to_relative_date.WeekFloor" style="stroke: #A80036; stroke-width: 1.0;"/><polygon fill="none" points="389.78,260.49,379.97,241.71,399.35,250.28,389.78,260.49" style="stroke: #A80036; stroke-width: 1.0;"/><!--MD5=[cfc811ab1f9af3cc3d4c6e04067f4550]
reverse link to_relative_date.Statement to to_relative_date.YearFloor--><path d="M419.99,244.17 C459.29,261.23 509.43,283.81 553,306 C558.61,308.86 564.44,311.97 570.17,315.14 " fill="none" id="to_relative_date.Statement&lt;-to_relative_date.YearFloor" style="stroke: #A80036; stroke-width: 1.0;"/><polygon fill="none" points="416.96,250.49,401.36,236.15,422.5,237.63,416.96,250.49" style="stroke: #A80036; stroke-width: 1.0;"/><!--MD5=[1923bb5dd3aff7860458c8f426d2055f]
reverse link to_relative_date.Statement to to_relative_date.FixedDelta--><path d="M284.26,245.73 C236.68,267.08 177.34,293.94 153,306 C147.08,308.93 140.92,312.09 134.84,315.28 " fill="none" id="to_relative_date.Statement&lt;-to_relative_date.FixedDelta" style="stroke: #A80036; stroke-width: 1.0;"/><polygon fill="none" points="281.7,239.21,302.81,237.42,287.42,251.98,281.7,239.21" style="stroke: #A80036; stroke-width: 1.0;"/><!--MD5=[5f33fdcbce5ccf5e695585f3ceeb1696]
reverse link to_relative_date.Statement to to_relative_date.Floor--><path d="M309.47,255.65 C290.02,274.01 267.38,295.39 249.49,312.28 " fill="none" id="to_relative_date.Statement&lt;-to_relative_date.Floor" style="stroke: #A80036; stroke-width: 1.0;"/><polygon fill="none" points="304.89,250.35,324.24,241.71,314.5,260.53,304.89,250.35" style="stroke: #A80036; stroke-width: 1.0;"/><!--MD5=[c7220b4a3d83394d713bb54193e3e4e3]
link to_relative_date.MonthFloor to to_relative_date.MonthDelta--><path d="M350.8269,385.5251 C350.8269,385.5251 349.71,425.52 349.21,443.46 " fill="none" id="to_relative_date.MonthFloor-to_relative_date.MonthDelta" style="stroke: #A80036; stroke-width: 1.0;"/><polygon fill="#A80036" points="348.84,456.52,353.0859,447.6334,348.9775,451.5219,345.0889,447.4134,348.84,456.52" style="stroke: #A80036; stroke-width: 1.0;"/><line style="stroke: #A80036; stroke-width: 1.0;" x1="348.9775" x2="349.205" y1="451.5219" y2="443.525"/><polygon fill="#A80036" points="351.17,373.53,347.0001,379.4132,350.8269,385.5251,354.9968,379.6419,351.17,373.53" style="stroke: #A80036; stroke-width: 1.0;"/><text fill="#000000" font-family="sans-serif" font-size="13" lengthAdjust="spacingAndGlyphs" textLength="32" x="351" y="423.0669">delta</text><!--MD5=[8703ebf54053b12222295ba95298c482]
link to_relative_date.MonthFloor to to_relative_date.WeekdayOfMonthFloor--><path d="M305.9776,381.0488 C305.9776,381.0488 247.78,427.91 222.15,448.54 " fill="none" id="to_relative_date.MonthFloor-to_relative_date.WeekdayOfMonthFloor" style="stroke: #A80036; stroke-width: 1.0;"/><polygon fill="#A80036" points="211.93,456.77,221.4484,454.2402,215.8241,453.6338,216.4305,448.0096,211.93,456.77" style="stroke: #A80036; stroke-width: 1.0;"/><line style="stroke: #A80036; stroke-width: 1.0;" x1="215.8241" x2="222.055" y1="453.6338" y2="448.615"/><polygon fill="#A80036" points="315.33,373.53,308.1475,374.172,305.9776,381.0488,313.1601,380.4069,315.33,373.53" style="stroke: #A80036; stroke-width: 1.0;"/><text fill="#000000" font-family="sans-serif" font-size="13" lengthAdjust="spacingAndGlyphs" textLength="23" x="269" y="423.0669">day</text><!--MD5=[3eaadaf360d2c6638393c4e8a932c1c1]
link to_relative_date.WeekFloor to to_relative_date.WeekDelta--><path d="M486.4186,385.5288 C486.4186,385.5288 485.86,425.52 485.6,443.46 " fill="none" id="to_relative_date.WeekFloor-to_relative_date.WeekDelta" style="stroke: #A80036; stroke-width: 1.0;"/><polygon fill="#A80036" points="485.42,456.52,489.5482,447.5781,485.4914,451.5205,481.549,447.4638,485.42,456.52" style="stroke: #A80036; stroke-width: 1.0;"/><line style="stroke: #A80036; stroke-width: 1.0;" x1="485.4914" x2="485.6" y1="451.5205" y2="443.525"/><polygon fill="#A80036" points="486.59,373.53,482.5047,379.4723,486.4186,385.5288,490.5039,379.5865,486.59,373.53" style="stroke: #A80036; stroke-width: 1.0;"/><text fill="#000000" font-family="sans-serif" font-size="13" lengthAdjust="spacingAndGlyphs" textLength="32" x="487" y="423.0669">delta</text><!--MD5=[95bab3f73c0ae9265ec6a08de2841ea5]
link to_relative_date.YearFloor to to_relative_date.YearDelta--><path d="M616,385.53 C616,385.53 616,425.52 616,443.46 " fill="none" id="to_relative_date.YearFloor-to_relative_date.YearDelta" style="stroke: #A80036; stroke-width: 1.0;"/><polygon fill="#A80036" points="616,456.52,620,447.52,616,451.52,612,447.52,616,456.52" style="stroke: #A80036; stroke-width: 1.0;"/><line style="stroke: #A80036; stroke-width: 1.0;" x1="616" x2="616" y1="451.52" y2="443.52"/><polygon fill="#A80036" points="616,373.53,612,379.53,616,385.53,620,379.53,616,373.53" style="stroke: #A80036; stroke-width: 1.0;"/><text fill="#000000" font-family="sans-serif" font-size="13" lengthAdjust="spacingAndGlyphs" textLength="32" x="617" y="423.0669">delta</text><rect fill="#DDDDDD" height="95.4844" rx="5" ry="5" style="stroke: #000000; stroke-width: 1.0;" width="376" x="167.5" y="568"/><text fill="#000000" font-family="sans-serif" font-size="14" lengthAdjust="spacingAndGlyphs" textLength="85" x="173.5" y="585.9951">Match rules:</text><text fill="#000000" font-family="sans-serif" font-size="14" font-weight="bold" lengthAdjust="spacingAndGlyphs" textLength="44" x="178.5" y="604.292">Name</text><text fill="#000000" font-family="sans-serif" font-size="14" font-weight="bold" lengthAdjust="spacingAndGlyphs" textLength="91" x="265.5" y="604.292">Rule details</text><text fill="#000000" font-family="sans-serif" font-size="14" lengthAdjust="spacingAndGlyphs" textLength="68" x="177.5" y="620.5889">Comment</text><text fill="#000000" font-family="sans-serif" font-size="14" lengthAdjust="spacingAndGlyphs" textLength="269" x="264.5" y="620.5889">(\/(\?!\&lt;[\"'])\*(.|\n)*\?\*\/(\?![\"']))|(\/\/.*)</text><text fill="#000000" font-family="sans-serif" font-size="14" lengthAdjust="spacingAndGlyphs" textLength="63" x="177.5" y="636.8857">FixedUnit</text><text fill="#000000" font-family="sans-serif" font-size="14" lengthAdjust="spacingAndGlyphs" textLength="60" x="264.5" y="636.8857">[smhdw]</text><text fill="#000000" font-family="sans-serif" font-size="14" lengthAdjust="spacingAndGlyphs" textLength="79" x="177.5" y="653.1826">WeekDayID</text><text fill="#000000" font-family="sans-serif" font-size="14" lengthAdjust="spacingAndGlyphs" textLength="195" x="264.5" y="653.1826">mon|tue|wed|thu|fri|sat|sun</text><line style="stroke: #000000; stroke-width: 1.0;" x1="173.5" x2="537.5" y1="591.2969" y2="591.2969"/><line style="stroke: #000000; stroke-width: 1.0;" x1="173.5" x2="537.5" y1="607.5938" y2="607.5938"/><line style="stroke: #000000; stroke-width: 1.0;" x1="173.5" x2="537.5" y1="623.8906" y2="623.8906"/><line style="stroke: #000000; stroke-width: 1.0;" x1="173.5" x2="537.5" y1="640.1875" y2="640.1875"/><line style="stroke: #000000; stroke-width: 1.0;" x1="173.5" x2="537.5" y1="656.4844" y2="656.4844"/><line style="stroke: #000000; stroke-width: 1.0;" x1="173.5" x2="173.5" y1="591.2969" y2="656.4844"/><line style="stroke: #000000; stroke-width: 1.0;" x1="260.5" x2="260.5" y1="591.2969" y2="656.4844"/><line style="stroke: #000000; stroke-width: 1.0;" x1="537.5" x2="537.5" y1="591.2969" y2="656.4844"/><!--MD5=[1568cc2503c9d14c46910d48ce5ce017]
@startuml
set namespaceSeparator .


class to_relative_date.Program  {
}


class to_relative_date.Now  {
  timezone : STRING
}


class to_relative_date.Statement <<abstract>> {
}


class to_relative_date.FixedDelta  {
  value : INT
  unit : FixedUnit
}


class to_relative_date.Floor  {
  unit : FixedUnit
}


class to_relative_date.WeekdayOfMonthFloor  {
  value : WeekDayID
}


class to_relative_date.MonthDelta  {
  value : INT
}


class to_relative_date.MonthFloor  {
  unit : STRING
}


class to_relative_date.WeekDelta  {
  value : INT
}


class to_relative_date.WeekFloor  {
  unit : STRING
}


class to_relative_date.YearDelta  {
  value : INT
}


class to_relative_date.YearFloor  {
  unit : STRING
}


to_relative_date.Program *- -> to_relative_date.Now: now
to_relative_date.Program *- -> to_relative_date.Statement: statements 0..*
to_relative_date.Statement <|- - to_relative_date.MonthFloor
to_relative_date.Statement <|- - to_relative_date.WeekFloor
to_relative_date.Statement <|- - to_relative_date.YearFloor
to_relative_date.Statement <|- - to_relative_date.FixedDelta
to_relative_date.Statement <|- - to_relative_date.Floor
to_relative_date.MonthFloor *- -> to_relative_date.MonthDelta: delta
to_relative_date.MonthFloor *- -> to_relative_date.WeekdayOfMonthFloor: day
to_relative_date.WeekFloor *- -> to_relative_date.WeekDelta: delta
to_relative_date.YearFloor *- -> to_relative_date.YearDelta: delta

legend
  Match rules:
  |= Name  |= Rule details |
  | Comment | (\\/(\?!\<[\"'])\\*(.\|\\n)*\?\\*\\/(\?![\"']))\|(\\/\\/.*) |
  | FixedUnit | [smhdw] |
  | WeekDayID | mon\|tue\|wed\|thu\|fri\|sat\|sun |
end legend

@enduml

PlantUML version 1.2020.02(Sun Mar 01 11:22:07 CET 2020)
(GPL source distribution)
Java Runtime: OpenJDK Runtime Environment
JVM: OpenJDK 64-Bit Server VM
Java Version: 11.0.21+9-post-Ubuntu-0ubuntu122.04
Operating System: Linux
Default Encoding: UTF-8
Language: en
Country: US
--></g></svg>